<svg viewBox="0 0 43 58" xmlns="http://www.w3.org/2000/svg" id="teach" stroke="#828282" fill="transparent">
                    <path d="M9.8 23.8l.3.2h22.8l.3-.2 4-3.1H42v36H1v-36h5.1l3.7 3.1z" stroke-width="1.5"></path>
                    <path d="M11.1 45.7a5.5 5.5 0 1 0 0-11 5.5 5.5 0 0 0 0 11z" stroke-width="1.5"></path>
                    <path d="M11.65 40.2a.55.55 0 1 1-1.1 0 .55.55 0 0 1 1.1 0zM32 45.7a5.5 5.5 0 1 0 0-11 5.5 5.5 0 0 0 0 11z" stroke-width="1.5"></path>
                    <path d="M32.55 40.2a.55.55 0 1 1-1.1 0 .55.55 0 0 1 1.1 0zM16.6 1h-4.5v23h4.5V1zm13.7 0h-4.5v23h4.5V1z" stroke-width="1.5"></path>
                </svg>