<svg viewBox="0 0 59 59" xmlns="http://www.w3.org/2000/svg" id="delivery" stroke="#828282" fill="transparent">
                <path d="M10.8 57.5c5.412 0 9.8-4.388 9.8-9.8 0-5.412-4.388-9.8-9.8-9.8-5.412 0-9.8 4.388-9.8 9.8 0 5.412 4.388 9.8 9.8 9.8zm0-36.9c5.412 0 9.8-4.388 9.8-9.8 0-5.412-4.388-9.8-9.8-9.8C5.388 1 1 5.388 1 10.8c0 5.412 4.388 9.8 9.8 9.8zm37.4 36.9c5.412 0 9.8-4.388 9.8-9.8 0-5.412-4.388-9.8-9.8-9.8-5.412 0-9.8 4.388-9.8 9.8 0 5.412 4.388 9.8 9.8 9.8zm0-36.9c5.412 0 9.8-4.388 9.8-9.8C58 5.388 53.612 1 48.2 1c-5.412 0-9.8 4.388-9.8 9.8 0 5.412 4.388 9.8 9.8 9.8z" stroke-width="1.5"></path>
                <path d="M44.8 8.9L38 15.7c-4.7 4.7-12.3 4.7-17 0L14.3 9c-1.4-1.4-3.6-1.6-5.1-.3-1.5 1.4-1.6 3.8-.1 5.2l6.8 6.8c4.7 4.7 4.7 12.3 0 17l-6.8 6.8c-1.4 1.4-1.4 3.7 0 5.1 1.4 1.4 3.7 1.4 5.1 0l6.8-6.8c4.7-4.7 12.3-4.7 17 0l6.7 6.7c1.4 1.4 3.6 1.6 5.1.3 1.5-1.4 1.6-3.8.1-5.2l-6.8-6.8c-4.7-4.7-4.7-12.3 0-17l6.8-6.8c1.4-1.4 1.4-3.7 0-5.1-1.4-1.4-3.7-1.4-5.1 0z" stroke-width="1.5" stroke-miterlimit="10"></path>
            </svg>