<svg viewBox="0 0 78 57" xmlns="http://www.w3.org/2000/svg" id="testdrive"  stroke="#828282" fill="transparent">
                <path d="M76.032 44.872H74.56V31.817c0-1.498-.43-2.996-1.398-4.28l-6.13-8.667c-1.506-2.14-3.98-3.425-6.668-3.425H50.9c-1.075 0-2.043.857-2.043 1.927v27.607H33.37c1.506 1.177 2.474 2.889 2.796 4.815h16.347c.537-3.852 3.979-6.848 8.173-6.848s7.528 2.996 8.173 6.848h7.173A.961.961 0 0 0 77 48.83v-2.89c0-.641-.43-1.07-.968-1.07zm-9.001-15.623H54.448a.961.961 0 0 1-.968-.963v-6.634c0-.535.43-.963.968-.963h7.636c.322 0 .645.107.86.428l4.84 6.634c.537.535 0 1.498-.753 1.498zM8.635 44.872a.961.961 0 0 0-.967.963v2.889c0 .535.43.963.967.963H19.82c.322-1.926 1.29-3.638 2.796-4.815H8.636zm19.358.856c-3.011 0-5.377 2.354-5.377 5.136 0 2.889 2.366 5.136 5.377 5.136 3.011 0 5.377-2.354 5.377-5.136s-2.366-5.136-5.377-5.136zm32.693 0c-3.011 0-5.377 2.354-5.377 5.136 0 2.889 2.366 5.136 5.377 5.136 3.01 0 5.377-2.354 5.377-5.136.107-2.782-2.366-5.136-5.377-5.136zM43.049 9.346H31.434c.538 1.605.86 3.424.86 5.136 0 9.096-7.742 16.586-17.206 16.586-1.72 0-3.441-.214-4.947-.749v10.7c0 .535.43.964.968.964h33.983a.961.961 0 0 0 .968-.963V12.235c0-1.605-1.398-2.889-3.011-2.889zM15.088 1C7.238 1 1 7.1 1 14.59s6.345 13.589 14.088 13.589c7.743 0 14.088-6.1 14.088-13.59S22.831 1 15.088 1zm3.441 18.084h-.43L13.152 17.8c-.645-.214-1.075-.75-1.075-1.391V9.132c0-.749.645-1.498 1.505-1.498.86 0 1.506.642 1.506 1.498v6.1l3.764.963c.753.214 1.29.963 1.075 1.819-.107.642-.752 1.07-1.398 1.07z" stroke-width="1.5" stroke-miterlimit="10"></path>
            </svg>