<svg viewBox="0 0 57 57" xmlns="http://www.w3.org/2000/svg" id="warranty"  stroke="#828282" fill="transparent">
    <path d="M34.8 16.8l12-2.4 8.6 9.3L52 34.8l-12.1 3.1-8.5-9.3 3.4-11.8z" stroke-width="1.5"></path>
    <path d="M43.2 31.4a5.5 5.5 0 1 0 0-11 5.5 5.5 0 0 0 0 11zM22.8 2.5L29.6 1l4.8 5.2-2 6.3-6.8 1.8-4.8-5.2 2-6.6z" stroke-width="1.5"></path>
    <path d="M27.4 10.6a3 3 0 1 0 0-6 3 3 0 0 0 0 6zM17.2 14l-7.7 1.5 5.1 5.6-6.3 5.7-5.1-5.6L1 28.7l8.9 9.7 7.3-1.9 16.6 18.1c1.6 1.8 4.4 1.9 6.1.3 1.7-1.6 1.9-4.4.3-6.1L23.9 31l2.3-7.3-9-9.7z" stroke-width="1.5"></path>
</svg>